<svg width="19" height="19" viewBox="0 0 19 19" fill="none" xmlns="http://www.w3.org/2000/svg">
<g clip-path="url(#clip0_1_4)">
<rect x="0.5" y="0.5" width="3" height="3" rx="0.5" fill="white"/>
<rect x="0.5" y="0.5" width="3" height="3" rx="0.5" stroke="black"/>
<rect x="5.5" y="0.5" width="3" height="3" rx="0.5" fill="white"/>
<rect x="5.5" y="0.5" width="3" height="3" rx="0.5" stroke="black"/>
<rect x="10.5" y="0.5" width="3" height="3" rx="0.5" fill="white"/>
<rect x="10.5" y="0.5" width="3" height="3" rx="0.5" stroke="black"/>
<rect x="15.5" y="0.5" width="3" height="3" rx="0.5" fill="white"/>
<rect x="15.5" y="0.5" width="3" height="3" rx="0.5" stroke="black"/>
<rect x="0.5" y="5.5" width="3" height="3" rx="0.5" fill="white"/>
<rect x="0.5" y="5.5" width="3" height="3" rx="0.5" stroke="black"/>
<rect x="5.5" y="5.5" width="3" height="3" rx="0.5" fill="white"/>
<rect x="5.5" y="5.5" width="3" height="3" rx="0.5" stroke="black"/>
<rect x="10.5" y="5.5" width="3" height="3" rx="0.5" fill="white"/>
<rect x="10.5" y="5.5" width="3" height="3" rx="0.5" stroke="black"/>
<rect x="15.5" y="5.5" width="3" height="3" rx="0.5" fill="white"/>
<rect x="15.5" y="5.5" width="3" height="3" rx="0.5" stroke="black"/>
<rect x="0.5" y="10.5" width="3" height="3" rx="0.5" fill="white"/>
<rect x="0.5" y="10.5" width="3" height="3" rx="0.5" stroke="black"/>
<rect x="5.5" y="10.5" width="3" height="3" rx="0.5" fill="white"/>
<rect x="5.5" y="10.5" width="3" height="3" rx="0.5" stroke="black"/>
<rect x="10.5" y="10.5" width="3" height="3" rx="0.5" fill="white"/>
<rect x="10.5" y="10.5" width="3" height="3" rx="0.5" stroke="black"/>
<rect x="15.5" y="10.5" width="3" height="3" rx="0.5" fill="white"/>
<rect x="15.5" y="10.5" width="3" height="3" rx="0.5" stroke="black"/>
<rect x="0.5" y="15.5" width="3" height="3" rx="0.5" fill="white"/>
<rect x="0.5" y="15.5" width="3" height="3" rx="0.5" stroke="black"/>
<rect x="5.5" y="15.5" width="3" height="3" rx="0.5" fill="white"/>
<rect x="5.5" y="15.5" width="3" height="3" rx="0.5" stroke="black"/>
<rect x="10.5" y="15.5" width="3" height="3" rx="0.5" fill="white"/>
<rect x="10.5" y="15.5" width="3" height="3" rx="0.5" stroke="black"/>
<rect x="15.5" y="15.5" width="3" height="3" rx="0.5" fill="white"/>
<rect x="15.5" y="15.5" width="3" height="3" rx="0.5" stroke="black"/>
</g>
<defs>
<clipPath id="clip0_1_4">
<rect width="19" height="19" fill="white"/>
</clipPath>
</defs>
</svg>
