<svg width="14" height="14" viewBox="0 0 14 14" fill="none" xmlns="http://www.w3.org/2000/svg">
<g clip-path="url(#clip0_1_10)">
<rect x="0.5" y="0.5" width="3" height="3" rx="0.5" fill="white"/>
<rect x="0.5" y="0.5" width="3" height="3" rx="0.5" stroke="black"/>
<rect x="5.5" y="0.5" width="3" height="3" rx="0.5" fill="white"/>
<rect x="5.5" y="0.5" width="3" height="3" rx="0.5" stroke="black"/>
<rect x="10.5" y="0.5" width="3" height="3" rx="0.5" fill="white"/>
<rect x="10.5" y="0.5" width="3" height="3" rx="0.5" stroke="black"/>
<rect x="0.5" y="5.5" width="3" height="3" rx="0.5" fill="white"/>
<rect x="0.5" y="5.5" width="3" height="3" rx="0.5" stroke="black"/>
<rect x="5.5" y="5.5" width="3" height="3" rx="0.5" fill="white"/>
<rect x="5.5" y="5.5" width="3" height="3" rx="0.5" stroke="black"/>
<rect x="10.5" y="5.5" width="3" height="3" rx="0.5" fill="white"/>
<rect x="10.5" y="5.5" width="3" height="3" rx="0.5" stroke="black"/>
<rect x="0.5" y="10.5" width="3" height="3" rx="0.5" fill="white"/>
<rect x="0.5" y="10.5" width="3" height="3" rx="0.5" stroke="black"/>
<rect x="5.5" y="10.5" width="3" height="3" rx="0.5" fill="white"/>
<rect x="5.5" y="10.5" width="3" height="3" rx="0.5" stroke="black"/>
<rect x="10.5" y="10.5" width="3" height="3" rx="0.5" fill="white"/>
<rect x="10.5" y="10.5" width="3" height="3" rx="0.5" stroke="black"/>
</g>
<defs>
<clipPath id="clip0_1_10">
<rect width="14" height="14" fill="white"/>
</clipPath>
</defs>
</svg>
